<?xml version="1.0" standalone="no"?>
<!DOCTYPE svg PUBLIC "-//W3C//DTD SVG 20010904//EN"
 "http://www.w3.org/TR/2001/REC-SVG-20010904/DTD/svg10.dtd">
<svg version="1.0" xmlns="http://www.w3.org/2000/svg"
 width="677.000000pt" height="369.000000pt" viewBox="0 0 677.000000 369.000000"
 preserveAspectRatio="xMidYMid meet">

<g transform="translate(0.000000,369.000000) scale(0.100000,-0.100000)"
fill="#000000" stroke="none">
<path d="M2217 3310 c-62 -11 -142 -52 -190 -98 -45 -44 -92 -133 -107 -205
-7 -37 -10 -389 -8 -1157 l3 -1105 27 -68 c53 -131 150 -226 285 -277 50 -19
85 -20 770 -23 395 -2 898 -1 1118 2 l400 6 80 42 c124 66 191 141 236 263
l24 65 0 1130 0 1130 -24 58 c-51 127 -159 215 -291 236 -78 13 -2249 13
-2323 1z m1398 -747 c67 -34 139 -105 161 -158 8 -19 14 -37 14 -40 0 -3 -103
-5 -229 -5 -125 0 -253 -5 -282 -10 -152 -29 -280 -147 -318 -295 -6 -22 -11
-140 -11 -261 l0 -222 -96 -88 c-53 -49 -104 -92 -114 -96 -10 -4 -27 0 -39 8
-19 14 -21 25 -21 114 l0 99 -40 12 c-57 17 -143 98 -177 167 l-28 57 0 255 0
255 29 55 c52 97 132 157 241 180 22 5 222 8 445 7 l405 -2 60 -32z m193 -505
l-3 -213 -30 -59 c-35 -69 -109 -138 -175 -162 -36 -13 -93 -18 -278 -22 -128
-2 -244 -1 -258 2 l-25 7 3 212 c3 207 4 213 30 267 36 73 90 124 163 154 59
25 66 25 318 26 l259 0 -4 -212z m319 191 c72 -28 144 -94 180 -168 l28 -56 0
-240 c0 -239 0 -240 -26 -295 -35 -72 -96 -132 -164 -161 l-55 -24 0 -97 c0
-99 -10 -128 -45 -128 -16 0 -81 54 -179 149 l-69 66 -261 5 -261 5 -61 32
c-62 32 -111 80 -139 133 -9 17 -13 35 -10 39 3 5 116 10 252 10 137 1 265 6
286 12 58 16 152 75 192 122 20 23 51 71 68 107 l32 65 3 223 4 222 83 0 c62
0 100 -6 142 -21z"/>
</g>
</svg>
